# xmcd
#
# Track frame offsets:
#	150
#	12095
#	31170
#	43353
#	59823
#	73428
#	86338
#	100303
#	112440
#	125810
#	140710
#	153765
#	168263
#	181758
#
# Disc length: 2562 seconds
#
# Revision: 1
# Processed by: cddbd v1.5.2PL0 Copyright (c) Steve Scherf et al.
# Submitted via: audiograbber 1.83.01
#
DISCID=cd0a000e
DTITLE=Brian Coll - You're The Only One
DYEAR=1900
DGENRE=
TTITLE0=You're The Only One
TTITLE1=I'm Not The Marrying Kind
TTITLE2=Before This Day Ends
TTITLE3=I Was Walking On The Moon
TTITLE4=I Think Of You
TTITLE5=Make Up Your Mind Mary Ann
TTITLE6=Fallin' Out Of Love Again
TTITLE7=If I Can't Have Your Love
TTITLE8=Cause Feelings Can Change (Like The Seasons)
TTITLE9=Why Do Bad Things Happen To Good People
TTITLE10=My Lovely County Laois
TTITLE11=My Own Donegal
TTITLE12=I'll Go On Again
TTITLE13=Because I'm With My Baby
EXTD=
EXTT0=
EXTT1=
EXTT2=
EXTT3=
EXTT4=
EXTT5=
EXTT6=
EXTT7=
EXTT8=
EXTT9=
EXTT10=
EXTT11=
EXTT12=
EXTT13=
PLAYORDER=
